<mxfile host="app.diagrams.net" modified="2024-04-28T16:26:36.166Z" agent="Mozilla/5.0 (Windows NT 10.0; Win64; x64) AppleWebKit/537.36 (KHTML, like Gecko) Chrome/124.0.0.0 Safari/537.36" etag="mdWebeJ32fWpboj5Efyr" version="24.3.1" type="device">
  <diagram name="Page-1" id="pwGKWpbAJxbtZpHFPv18">
    <mxGraphModel dx="1900" dy="565" grid="1" gridSize="10" guides="1" tooltips="1" connect="1" arrows="1" fold="1" page="1" pageScale="1" pageWidth="850" pageHeight="1100" math="0" shadow="0">
      <root>
        <mxCell id="0" />
        <mxCell id="1" parent="0" />
        <mxCell id="QM6yB_f_AK3hF5kmRYjg-1" value="" style="shape=umlLifeline;perimeter=lifelinePerimeter;whiteSpace=wrap;html=1;container=1;dropTarget=0;collapsible=0;recursiveResize=0;outlineConnect=0;portConstraint=eastwest;newEdgeStyle={&quot;curved&quot;:0,&quot;rounded&quot;:0};participant=umlActor;" vertex="1" parent="1">
          <mxGeometry x="190" y="120" width="20" height="1010" as="geometry" />
        </mxCell>
        <mxCell id="QM6yB_f_AK3hF5kmRYjg-32" value="" style="html=1;points=[[0,0,0,0,5],[0,1,0,0,-5],[1,0,0,0,5],[1,1,0,0,-5]];perimeter=orthogonalPerimeter;outlineConnect=0;targetShapes=umlLifeline;portConstraint=eastwest;newEdgeStyle={&quot;curved&quot;:0,&quot;rounded&quot;:0};" vertex="1" parent="QM6yB_f_AK3hF5kmRYjg-1">
          <mxGeometry x="-10" y="80" width="30" height="810" as="geometry" />
        </mxCell>
        <mxCell id="QM6yB_f_AK3hF5kmRYjg-2" value="page" style="shape=umlLifeline;perimeter=lifelinePerimeter;whiteSpace=wrap;html=1;container=1;dropTarget=0;collapsible=0;recursiveResize=0;outlineConnect=0;portConstraint=eastwest;newEdgeStyle={&quot;curved&quot;:0,&quot;rounded&quot;:0};" vertex="1" parent="1">
          <mxGeometry x="300" y="120" width="100" height="1010" as="geometry" />
        </mxCell>
        <mxCell id="QM6yB_f_AK3hF5kmRYjg-33" value="" style="html=1;points=[[0,0,0,0,5],[0,1,0,0,-5],[1,0,0,0,5],[1,1,0,0,-5]];perimeter=orthogonalPerimeter;outlineConnect=0;targetShapes=umlLifeline;portConstraint=eastwest;newEdgeStyle={&quot;curved&quot;:0,&quot;rounded&quot;:0};" vertex="1" parent="QM6yB_f_AK3hF5kmRYjg-2">
          <mxGeometry x="30" y="60" width="30" height="80" as="geometry" />
        </mxCell>
        <mxCell id="QM6yB_f_AK3hF5kmRYjg-3" value="registration&lt;div&gt;&amp;nbsp;server&lt;/div&gt;" style="shape=umlLifeline;perimeter=lifelinePerimeter;whiteSpace=wrap;html=1;container=1;dropTarget=0;collapsible=0;recursiveResize=0;outlineConnect=0;portConstraint=eastwest;newEdgeStyle={&quot;curved&quot;:0,&quot;rounded&quot;:0};" vertex="1" parent="1">
          <mxGeometry x="480" y="120" width="100" height="1020" as="geometry" />
        </mxCell>
        <mxCell id="QM6yB_f_AK3hF5kmRYjg-34" value="" style="html=1;points=[[0,0,0,0,5],[0,1,0,0,-5],[1,0,0,0,5],[1,1,0,0,-5]];perimeter=orthogonalPerimeter;outlineConnect=0;targetShapes=umlLifeline;portConstraint=eastwest;newEdgeStyle={&quot;curved&quot;:0,&quot;rounded&quot;:0};" vertex="1" parent="QM6yB_f_AK3hF5kmRYjg-3">
          <mxGeometry x="30" y="90" width="40" height="210" as="geometry" />
        </mxCell>
        <mxCell id="QM6yB_f_AK3hF5kmRYjg-36" value="" style="html=1;points=[[0,0,0,0,5],[0,1,0,0,-5],[1,0,0,0,5],[1,1,0,0,-5]];perimeter=orthogonalPerimeter;outlineConnect=0;targetShapes=umlLifeline;portConstraint=eastwest;newEdgeStyle={&quot;curved&quot;:0,&quot;rounded&quot;:0};" vertex="1" parent="QM6yB_f_AK3hF5kmRYjg-3">
          <mxGeometry x="30" y="600" width="40" height="90" as="geometry" />
        </mxCell>
        <mxCell id="QM6yB_f_AK3hF5kmRYjg-37" value="" style="html=1;points=[[0,0,0,0,5],[0,1,0,0,-5],[1,0,0,0,5],[1,1,0,0,-5]];perimeter=orthogonalPerimeter;outlineConnect=0;targetShapes=umlLifeline;portConstraint=eastwest;newEdgeStyle={&quot;curved&quot;:0,&quot;rounded&quot;:0};" vertex="1" parent="QM6yB_f_AK3hF5kmRYjg-3">
          <mxGeometry x="30" y="790" width="40" height="40" as="geometry" />
        </mxCell>
        <mxCell id="QM6yB_f_AK3hF5kmRYjg-4" value="authentication&lt;div&gt;server&lt;/div&gt;" style="shape=umlLifeline;perimeter=lifelinePerimeter;whiteSpace=wrap;html=1;container=1;dropTarget=0;collapsible=0;recursiveResize=0;outlineConnect=0;portConstraint=eastwest;newEdgeStyle={&quot;curved&quot;:0,&quot;rounded&quot;:0};" vertex="1" parent="1">
          <mxGeometry x="700" y="120" width="100" height="1030" as="geometry" />
        </mxCell>
        <mxCell id="QM6yB_f_AK3hF5kmRYjg-5" value="click on sign up button" style="html=1;verticalAlign=bottom;endArrow=block;curved=0;rounded=0;" edge="1" parent="1">
          <mxGeometry width="80" relative="1" as="geometry">
            <mxPoint x="200" y="210" as="sourcePoint" />
            <mxPoint x="330" y="210" as="targetPoint" />
          </mxGeometry>
        </mxCell>
        <mxCell id="QM6yB_f_AK3hF5kmRYjg-6" value="open registration form" style="html=1;verticalAlign=bottom;endArrow=block;curved=0;rounded=0;" edge="1" parent="1">
          <mxGeometry width="80" relative="1" as="geometry">
            <mxPoint x="360" y="250" as="sourcePoint" />
            <mxPoint x="510" y="250" as="targetPoint" />
          </mxGeometry>
        </mxCell>
        <mxCell id="QM6yB_f_AK3hF5kmRYjg-7" value="enter user name" style="html=1;verticalAlign=bottom;endArrow=block;curved=0;rounded=0;" edge="1" parent="1" source="QM6yB_f_AK3hF5kmRYjg-1">
          <mxGeometry width="80" relative="1" as="geometry">
            <mxPoint x="230" y="280" as="sourcePoint" />
            <mxPoint x="510" y="290" as="targetPoint" />
          </mxGeometry>
        </mxCell>
        <mxCell id="QM6yB_f_AK3hF5kmRYjg-8" value="check user name" style="html=1;verticalAlign=bottom;endArrow=block;curved=0;rounded=0;entryX=0;entryY=0;entryDx=0;entryDy=5;entryPerimeter=0;" edge="1" parent="1" target="QM6yB_f_AK3hF5kmRYjg-38">
          <mxGeometry x="0.0024" width="80" relative="1" as="geometry">
            <mxPoint x="550" y="310" as="sourcePoint" />
            <mxPoint x="610" y="310" as="targetPoint" />
            <mxPoint as="offset" />
          </mxGeometry>
        </mxCell>
        <mxCell id="QM6yB_f_AK3hF5kmRYjg-11" value="user name does not exists" style="html=1;verticalAlign=bottom;endArrow=open;dashed=1;endSize=8;curved=0;rounded=0;" edge="1" parent="1" source="QM6yB_f_AK3hF5kmRYjg-38">
          <mxGeometry relative="1" as="geometry">
            <mxPoint x="739.5" y="364.5" as="sourcePoint" />
            <mxPoint x="550" y="360" as="targetPoint" />
          </mxGeometry>
        </mxCell>
        <mxCell id="QM6yB_f_AK3hF5kmRYjg-12" value="user name exists" style="html=1;verticalAlign=bottom;endArrow=open;dashed=1;endSize=8;curved=0;rounded=0;" edge="1" parent="1" target="QM6yB_f_AK3hF5kmRYjg-34">
          <mxGeometry relative="1" as="geometry">
            <mxPoint x="740" y="430" as="sourcePoint" />
            <mxPoint x="529.5" y="430" as="targetPoint" />
          </mxGeometry>
        </mxCell>
        <mxCell id="QM6yB_f_AK3hF5kmRYjg-13" value="show warning about the user name" style="html=1;verticalAlign=bottom;endArrow=open;dashed=1;endSize=8;curved=0;rounded=0;" edge="1" parent="1" target="QM6yB_f_AK3hF5kmRYjg-32">
          <mxGeometry x="-0.0015" relative="1" as="geometry">
            <mxPoint x="530" y="460" as="sourcePoint" />
            <mxPoint x="220" y="460" as="targetPoint" />
            <mxPoint as="offset" />
          </mxGeometry>
        </mxCell>
        <mxCell id="QM6yB_f_AK3hF5kmRYjg-14" value="alt" style="shape=umlFrame;whiteSpace=wrap;html=1;pointerEvents=0;" vertex="1" parent="1">
          <mxGeometry x="-80" y="320" width="890" height="170" as="geometry" />
        </mxCell>
        <mxCell id="QM6yB_f_AK3hF5kmRYjg-18" value="" style="endArrow=none;dashed=1;html=1;rounded=0;exitX=-0.001;exitY=0.354;exitDx=0;exitDy=0;exitPerimeter=0;entryX=0.998;entryY=0.359;entryDx=0;entryDy=0;entryPerimeter=0;" edge="1" parent="1" source="QM6yB_f_AK3hF5kmRYjg-14" target="QM6yB_f_AK3hF5kmRYjg-14">
          <mxGeometry width="50" height="50" relative="1" as="geometry">
            <mxPoint x="20.000000000000036" y="380.83000000000004" as="sourcePoint" />
            <mxPoint x="740.79" y="380" as="targetPoint" />
          </mxGeometry>
        </mxCell>
        <mxCell id="QM6yB_f_AK3hF5kmRYjg-19" value="[the choice name is unique]" style="text;html=1;align=center;verticalAlign=middle;resizable=0;points=[];autosize=1;strokeColor=none;fillColor=none;" vertex="1" parent="1">
          <mxGeometry x="-80" y="355" width="170" height="30" as="geometry" />
        </mxCell>
        <mxCell id="QM6yB_f_AK3hF5kmRYjg-20" value="[the choice name is already used]" style="text;html=1;align=center;verticalAlign=middle;resizable=0;points=[];autosize=1;strokeColor=none;fillColor=none;" vertex="1" parent="1">
          <mxGeometry x="-80" y="408" width="200" height="30" as="geometry" />
        </mxCell>
        <mxCell id="QM6yB_f_AK3hF5kmRYjg-21" value="enter password&amp;nbsp;" style="html=1;verticalAlign=bottom;endArrow=block;curved=0;rounded=0;entryX=0;entryY=0;entryDx=0;entryDy=5;entryPerimeter=0;" edge="1" parent="1" source="QM6yB_f_AK3hF5kmRYjg-32" target="QM6yB_f_AK3hF5kmRYjg-35">
          <mxGeometry width="80" relative="1" as="geometry">
            <mxPoint x="205.25" y="560.0000000000001" as="sourcePoint" />
            <mxPoint x="524.75" y="560.0000000000001" as="targetPoint" />
          </mxGeometry>
        </mxCell>
        <mxCell id="QM6yB_f_AK3hF5kmRYjg-23" value="show invalid password massege" style="html=1;verticalAlign=bottom;endArrow=open;dashed=1;endSize=8;curved=0;rounded=0;" edge="1" parent="1" target="QM6yB_f_AK3hF5kmRYjg-32">
          <mxGeometry relative="1" as="geometry">
            <mxPoint x="530" y="620" as="sourcePoint" />
            <mxPoint x="220" y="620" as="targetPoint" />
          </mxGeometry>
        </mxCell>
        <mxCell id="QM6yB_f_AK3hF5kmRYjg-24" value="opt" style="shape=umlFrame;whiteSpace=wrap;html=1;pointerEvents=0;" vertex="1" parent="1">
          <mxGeometry x="-80" y="590" width="680" height="100" as="geometry" />
        </mxCell>
        <mxCell id="QM6yB_f_AK3hF5kmRYjg-25" value="[password is shorter then 6 character&lt;div&gt;or doesn&#39;t contain number]&lt;/div&gt;" style="text;html=1;align=center;verticalAlign=middle;resizable=0;points=[];autosize=1;strokeColor=none;fillColor=none;" vertex="1" parent="1">
          <mxGeometry x="-60" y="620" width="220" height="40" as="geometry" />
        </mxCell>
        <mxCell id="QM6yB_f_AK3hF5kmRYjg-26" value="enter password confirmation" style="html=1;verticalAlign=bottom;endArrow=block;curved=0;rounded=0;" edge="1" parent="1">
          <mxGeometry width="80" relative="1" as="geometry">
            <mxPoint x="210" y="760" as="sourcePoint" />
            <mxPoint x="510" y="760" as="targetPoint" />
          </mxGeometry>
        </mxCell>
        <mxCell id="QM6yB_f_AK3hF5kmRYjg-27" value="show the password about not matching password" style="html=1;verticalAlign=bottom;endArrow=open;dashed=1;endSize=8;curved=0;rounded=0;" edge="1" parent="1" target="QM6yB_f_AK3hF5kmRYjg-32">
          <mxGeometry relative="1" as="geometry">
            <mxPoint x="529.5" y="850" as="sourcePoint" />
            <mxPoint x="220" y="850" as="targetPoint" />
          </mxGeometry>
        </mxCell>
        <mxCell id="QM6yB_f_AK3hF5kmRYjg-28" value="opt" style="shape=umlFrame;whiteSpace=wrap;html=1;pointerEvents=0;" vertex="1" parent="1">
          <mxGeometry x="-80" y="820" width="700" height="60" as="geometry" />
        </mxCell>
        <mxCell id="QM6yB_f_AK3hF5kmRYjg-29" value="[password and password&amp;nbsp;&lt;div&gt;confirmation is not same]&lt;/div&gt;" style="text;html=1;align=center;verticalAlign=middle;resizable=0;points=[];autosize=1;strokeColor=none;fillColor=none;" vertex="1" parent="1">
          <mxGeometry y="840" width="160" height="40" as="geometry" />
        </mxCell>
        <mxCell id="QM6yB_f_AK3hF5kmRYjg-30" value="confirm the form" style="html=1;verticalAlign=bottom;endArrow=block;curved=0;rounded=0;exitX=1;exitY=0.926;exitDx=0;exitDy=0;exitPerimeter=0;" edge="1" parent="1" source="QM6yB_f_AK3hF5kmRYjg-32">
          <mxGeometry width="80" relative="1" as="geometry">
            <mxPoint x="220" y="950" as="sourcePoint" />
            <mxPoint x="510" y="950" as="targetPoint" />
          </mxGeometry>
        </mxCell>
        <mxCell id="QM6yB_f_AK3hF5kmRYjg-31" value="return" style="html=1;verticalAlign=bottom;endArrow=open;dashed=1;endSize=8;curved=0;rounded=0;" edge="1" parent="1" target="QM6yB_f_AK3hF5kmRYjg-32">
          <mxGeometry relative="1" as="geometry">
            <mxPoint x="530" y="990" as="sourcePoint" />
            <mxPoint x="220" y="990" as="targetPoint" />
          </mxGeometry>
        </mxCell>
        <mxCell id="QM6yB_f_AK3hF5kmRYjg-35" value="" style="html=1;points=[[0,0,0,0,5],[0,1,0,0,-5],[1,0,0,0,5],[1,1,0,0,-5]];perimeter=orthogonalPerimeter;outlineConnect=0;targetShapes=umlLifeline;portConstraint=eastwest;newEdgeStyle={&quot;curved&quot;:0,&quot;rounded&quot;:0};" vertex="1" parent="1">
          <mxGeometry x="510" y="570" width="40" height="50" as="geometry" />
        </mxCell>
        <mxCell id="QM6yB_f_AK3hF5kmRYjg-38" value="" style="html=1;points=[[0,0,0,0,5],[0,1,0,0,-5],[1,0,0,0,5],[1,1,0,0,-5]];perimeter=orthogonalPerimeter;outlineConnect=0;targetShapes=umlLifeline;portConstraint=eastwest;newEdgeStyle={&quot;curved&quot;:0,&quot;rounded&quot;:0};" vertex="1" parent="1">
          <mxGeometry x="730" y="305" width="40" height="125" as="geometry" />
        </mxCell>
        <mxCell id="QM6yB_f_AK3hF5kmRYjg-39" value="customer" style="text;html=1;align=center;verticalAlign=middle;resizable=0;points=[];autosize=1;strokeColor=none;fillColor=none;" vertex="1" parent="1">
          <mxGeometry x="165" y="160" width="70" height="30" as="geometry" />
        </mxCell>
      </root>
    </mxGraphModel>
  </diagram>
</mxfile>
